<svg width="228" height="184" viewBox="0 0 228 184" fill="none" xmlns="http://www.w3.org/2000/svg">
<g clip-path="url(#clip0_1325_4525)">
<path fill-rule="evenodd" clip-rule="evenodd" d="M35.4825 153.572L35.4824 110.973L49.8193 110.973L49.8194 153.572L35.4825 153.572Z" fill="#328DFD"/>
<g style="mix-blend-mode:soft-light" opacity="0.6">
<path fill-rule="evenodd" clip-rule="evenodd" d="M35.4824 153.572V110.973H49.8193V153.572H35.4824Z" fill="url(#paint0_linear_1325_4525)"/>
</g>
<path fill-rule="evenodd" clip-rule="evenodd" d="M19.3535 109.541H49.8195V123.86H33.6904L33.6904 153.572L19.3535 153.572L19.3535 109.541Z" fill="#328DFD"/>
<path fill-rule="evenodd" clip-rule="evenodd" d="M57.249 80.5447L60.968 80.5447L60.968 65.3971L71.0039 65.3971L71.0039 80.5447C71.0039 86.0805 66.5107 90.5681 60.968 90.5681L57.249 90.5681L57.249 80.5447Z" fill="#CB8C54"/>
<g style="mix-blend-mode:soft-light" opacity="0.6">
<path fill-rule="evenodd" clip-rule="evenodd" d="M57.2481 80.5447L60.967 80.5447L60.967 65.3971L71.0029 65.3971L71.0029 80.5447C71.0029 86.0805 66.5097 90.5681 60.967 90.5681L57.248 90.5681L57.2481 80.5447Z" fill="url(#paint1_linear_1325_4525)"/>
</g>
<path d="M42.5516 60.561C46.1909 64.1957 46.1909 70.0889 42.5516 73.7236C38.9123 77.3584 33.0118 77.3584 29.3725 73.7236L42.5516 60.561Z" fill="#CB8C54"/>
<g style="mix-blend-mode:soft-light" opacity="0.6">
<path d="M42.5521 60.5604C46.1914 64.1952 46.1914 70.0883 42.5521 73.723C38.9128 77.3578 33.0123 77.3578 29.373 73.723L42.5521 60.5604Z" fill="url(#paint2_linear_1325_4525)"/>
</g>
<path d="M58.8516 55.1282L65.948 62.2158L73.0444 55.1282L65.948 48.0406L58.8516 55.1282Z" fill="#CB8C54"/>
<path fill-rule="evenodd" clip-rule="evenodd" d="M50.7969 80.5447L57.3833 80.5447L57.3833 92L50.7969 92L50.7969 80.5447Z" fill="#2B2F36"/>
<g style="mix-blend-mode:soft-light" opacity="0.6">
<path fill-rule="evenodd" clip-rule="evenodd" d="M50.7969 80.5447L57.3833 80.5447L57.3833 92L50.7969 92L50.7969 80.5447Z" fill="url(#paint3_linear_1325_4525)"/>
</g>
<path fill-rule="evenodd" clip-rule="evenodd" d="M31.9763 80.5447L37.1859 85.7479L42.3956 80.5447L50.8945 80.5447V112.047H19.3533V80.5447L31.9763 80.5447Z" fill="#2B2F36"/>
<g style="mix-blend-mode:soft-light" opacity="0.6">
<path d="M19.3535 93.2599L19.3547 112.046L50.8932 112.046L50.8932 106.494H38.3951C34.6879 106.494 31.1326 105.024 28.5112 102.406L19.3535 93.2599Z" fill="url(#paint4_linear_1325_4525)"/>
</g>
<path fill-rule="evenodd" clip-rule="evenodd" d="M16.177 94.8796L13.5472 97.506L21.4042 105.353L14.3078 112.441L6.45084 104.594C2.5316 100.679 2.5316 94.3328 6.45084 90.4184L9.08057 87.792L16.177 94.8796Z" fill="#CB8C54"/>
<g style="mix-blend-mode:soft-light" opacity="0.6">
<path fill-rule="evenodd" clip-rule="evenodd" d="M16.177 94.8796L13.5472 97.506L21.4042 105.353L14.3078 112.441L6.45084 104.594C2.5316 100.679 2.5316 94.3328 6.45084 90.4184L9.08057 87.792L16.177 94.8796Z" fill="url(#paint5_linear_1325_4525)"/>
</g>
<path fill-rule="evenodd" clip-rule="evenodd" d="M24.3715 92L19.059 92L13.5725 97.4797L5.46228 89.3796L10.9488 83.8999C13.0998 81.7516 16.0171 80.5447 19.059 80.5447L24.3715 80.5447L24.3715 92Z" fill="#2B2F36"/>
<path d="M47.6686 153.572H37.6328V169.681L57.8836 169.681L47.6686 159.658L47.6686 153.572Z" fill="#2B2F36"/>
<g style="mix-blend-mode:soft-light">
<path d="M47.6686 153.572H37.6328V169.681L57.8836 169.681L47.6686 159.658L47.6686 153.572Z" fill="url(#paint6_linear_1325_4525)"/>
</g>
<path d="M28.5276 59.8526C24.4066 63.9685 24.4066 70.6417 28.5276 74.7576L45.7389 57.5677H40.0343C38.7425 57.033 37.366 56.7657 35.9894 56.7657C33.2887 56.7657 30.5881 57.7947 28.5276 59.8526Z" fill="#F8D33A"/>
<path d="M0.455078 136.514L47.9121 89.1157L51.9893 93.1878L4.53228 140.586L0.455078 136.514Z" fill="#F8D33A"/>
<g style="mix-blend-mode:soft-light" opacity="0.6">
<path d="M28.5276 59.8528C24.4066 63.9687 24.4066 70.6419 28.5276 74.7578L45.7389 57.5679H40.0343C38.7425 57.0332 37.366 56.7659 35.9894 56.7659C33.2887 56.7659 30.5881 57.7948 28.5276 59.8528Z" fill="url(#paint7_linear_1325_4525)"/>
<path d="M0.455078 136.514L47.9121 89.1158L51.9893 93.188L4.53228 140.586L0.455078 136.514Z" fill="url(#paint8_linear_1325_4525)"/>
</g>
<path d="M32.0762 109.242L22.0403 109.242L22.0403 119.265L32.0762 119.265L32.0762 109.242Z" fill="#CB8C54"/>
<path d="M107.525 123.86H122.579V145.339H107.525V123.86Z" fill="#F8D33A"/>
<g style="mix-blend-mode:soft-light" opacity="0.6">
<path d="M122.579 123.86H107.525V145.339H122.579V123.86Z" fill="url(#paint9_linear_1325_4525)"/>
</g>
<path d="M227.956 149.634H212.902V171.113H227.956V149.634Z" fill="#F8D33A"/>
<g style="mix-blend-mode:soft-light" opacity="0.6">
<path d="M227.956 149.634H212.902V171.113H227.956V149.634Z" fill="url(#paint10_linear_1325_4525)"/>
</g>
<path d="M146.235 5.72763H155.554V42.9572H146.235V5.72763Z" fill="#5E6673"/>
<path fill-rule="evenodd" clip-rule="evenodd" d="M150.871 53.3582L166.073 68.5414L165.059 69.554L150.871 55.3832L136.682 69.554L135.668 68.5414L150.871 53.3582Z" fill="#5E6673"/>
<path fill-rule="evenodd" clip-rule="evenodd" d="M150.178 54.4125L150.178 39.3774L151.611 39.3774L151.611 54.4125L150.178 54.4125Z" fill="#5E6673"/>
<path d="M126.88 68.0156H175.267V89.4942H126.88V68.0156Z" fill="#F8D33A"/>
<g style="mix-blend-mode:soft-light" opacity="0.6">
<path d="M175.268 68.0156H126.88V89.4942H175.268V68.0156Z" fill="url(#paint11_linear_1325_4525)"/>
</g>
<path d="M179.568 123.86H227.955V145.339H179.568V123.86Z" fill="#F8D33A"/>
<g style="mix-blend-mode:soft-light" opacity="0.6">
<path d="M227.956 123.86H179.568V145.339H227.956V123.86Z" fill="url(#paint12_linear_1325_4525)"/>
</g>
<path d="M155.913 149.634H107.525V171.113H155.913V149.634Z" fill="#F8D33A"/>
<g style="mix-blend-mode:soft-light" opacity="0.6">
<path d="M155.913 149.634H107.525V171.113H155.913V149.634Z" fill="url(#paint13_linear_1325_4525)"/>
</g>
<path d="M208.601 149.634H160.214V171.113H208.601V149.634Z" fill="#F8D33A"/>
<g style="mix-blend-mode:soft-light" opacity="0.6">
<path d="M208.601 149.634H160.214V171.113H208.601V149.634Z" fill="url(#paint14_linear_1325_4525)"/>
</g>
<path fill-rule="evenodd" clip-rule="evenodd" d="M237.634 9.3074H207.527V39.3774H237.634V9.3074ZM236.201 10.7393V37.9455H208.96V10.7393H236.201Z" fill="#5E6673"/>
<path fill-rule="evenodd" clip-rule="evenodd" d="M209.153 38.7642L237.019 10.9328L236.005 9.92029L208.139 37.7517L209.153 38.7642Z" fill="#5E6673"/>
<path fill-rule="evenodd" clip-rule="evenodd" d="M236.003 38.7642L208.137 10.9328L209.151 9.92029L237.017 37.7517L236.003 38.7642Z" fill="#5E6673"/>
<path fill-rule="evenodd" clip-rule="evenodd" d="M208.959 9.3074H178.852V39.3774H208.959V9.3074ZM207.525 10.7393V37.9455H180.285V10.7393H207.525Z" fill="#5E6673"/>
<path fill-rule="evenodd" clip-rule="evenodd" d="M180.478 38.7642L208.344 10.9328L207.33 9.92029L179.464 37.7517L180.478 38.7642Z" fill="#5E6673"/>
<path fill-rule="evenodd" clip-rule="evenodd" d="M207.331 38.7642L179.465 10.9328L180.479 9.92029L208.345 37.7517L207.331 38.7642Z" fill="#5E6673"/>
<path fill-rule="evenodd" clip-rule="evenodd" d="M180.285 9.3074H150.178V39.3774H180.285V9.3074ZM178.851 10.7393V37.9455H151.611V10.7393H178.851Z" fill="#5E6673"/>
<path fill-rule="evenodd" clip-rule="evenodd" d="M151.804 38.7642L179.67 10.9328L178.657 9.92026L150.79 37.7517L151.804 38.7642Z" fill="#5E6673"/>
<path fill-rule="evenodd" clip-rule="evenodd" d="M178.658 38.7642L150.792 10.9328L151.805 9.92029L179.671 37.7517L178.658 38.7642Z" fill="#5E6673"/>
<path fill-rule="evenodd" clip-rule="evenodd" d="M151.611 9.3074H150.239L121.504 38.0069V39.3774H151.611V9.3074ZM150.178 11.3938V37.9455H123.593L150.178 11.3938Z" fill="#5E6673"/>
<path fill-rule="evenodd" clip-rule="evenodd" d="M150.029 38.809L135.692 24.4899L136.706 23.4774L151.043 37.7965L150.029 38.809Z" fill="#5E6673"/>
<path d="M0.356934 169.681H73.1168V171.113H0.356934V169.681Z" fill="#E6E8EA"/>
<path d="M33.6901 153.572H23.6543V169.681L43.9051 169.681L33.6901 159.658L33.6901 153.572Z" fill="#2B2F36"/>
</g>
<defs>
<linearGradient id="paint0_linear_1325_4525" x1="31.8982" y1="123.86" x2="43.3677" y2="123.86" gradientUnits="userSpaceOnUse">
<stop/>
<stop offset="1" stop-opacity="0"/>
</linearGradient>
<linearGradient id="paint1_linear_1325_4525" x1="57.4689" y1="89.1362" x2="73.2762" y2="73.3092" gradientUnits="userSpaceOnUse">
<stop/>
<stop offset="1" stop-opacity="0"/>
</linearGradient>
<linearGradient id="paint2_linear_1325_4525" x1="29.5697" y1="73.9223" x2="39.4141" y2="64.0657" gradientUnits="userSpaceOnUse">
<stop/>
<stop offset="1" stop-opacity="0"/>
</linearGradient>
<linearGradient id="paint3_linear_1325_4525" x1="57.8183" y1="91.2991" x2="58.1889" y2="80.5737" gradientUnits="userSpaceOnUse">
<stop/>
<stop offset="1" stop-opacity="0"/>
</linearGradient>
<linearGradient id="paint4_linear_1325_4525" x1="19.7119" y1="102.953" x2="51.2532" y2="102.953" gradientUnits="userSpaceOnUse">
<stop/>
<stop offset="1" stop-opacity="0"/>
</linearGradient>
<linearGradient id="paint5_linear_1325_4525" x1="8.19897" y1="94.3268" x2="11.4767" y2="108.838" gradientUnits="userSpaceOnUse">
<stop/>
<stop offset="1" stop-opacity="0"/>
</linearGradient>
<linearGradient id="paint6_linear_1325_4525" x1="37.6328" y1="169.681" x2="51.7905" y2="169.681" gradientUnits="userSpaceOnUse">
<stop/>
<stop offset="1" stop-opacity="0"/>
</linearGradient>
<linearGradient id="paint7_linear_1325_4525" x1="1.04072" y1="98.2828" x2="52.5774" y2="98.2828" gradientUnits="userSpaceOnUse">
<stop/>
<stop offset="1" stop-opacity="0"/>
</linearGradient>
<linearGradient id="paint8_linear_1325_4525" x1="1.04072" y1="98.2828" x2="52.5774" y2="98.2828" gradientUnits="userSpaceOnUse">
<stop/>
<stop offset="1" stop-opacity="0"/>
</linearGradient>
<linearGradient id="paint9_linear_1325_4525" x1="122.408" y1="134.942" x2="107.354" y2="134.942" gradientUnits="userSpaceOnUse">
<stop/>
<stop offset="1" stop-opacity="0"/>
</linearGradient>
<linearGradient id="paint10_linear_1325_4525" x1="227.784" y1="160.717" x2="212.73" y2="160.717" gradientUnits="userSpaceOnUse">
<stop/>
<stop offset="1" stop-opacity="0"/>
</linearGradient>
<linearGradient id="paint11_linear_1325_4525" x1="174.718" y1="79.0981" x2="126.328" y2="79.0981" gradientUnits="userSpaceOnUse">
<stop/>
<stop offset="1" stop-opacity="0"/>
</linearGradient>
<linearGradient id="paint12_linear_1325_4525" x1="227.406" y1="134.942" x2="179.016" y2="134.942" gradientUnits="userSpaceOnUse">
<stop/>
<stop offset="1" stop-opacity="0"/>
</linearGradient>
<linearGradient id="paint13_linear_1325_4525" x1="155.363" y1="160.717" x2="106.973" y2="160.717" gradientUnits="userSpaceOnUse">
<stop/>
<stop offset="1" stop-opacity="0"/>
</linearGradient>
<linearGradient id="paint14_linear_1325_4525" x1="208.051" y1="160.717" x2="159.661" y2="160.717" gradientUnits="userSpaceOnUse">
<stop/>
<stop offset="1" stop-opacity="0"/>
</linearGradient>
<clipPath id="clip0_1325_4525">
<rect width="227.956" height="184" fill="white"/>
</clipPath>
</defs>
</svg>
