<svg width="235" height="184" viewBox="0 0 235 184" fill="none" xmlns="http://www.w3.org/2000/svg">
<path d="M164.078 93.812C147.569 85.829 136.182 68.9214 136.182 49.3542C136.182 22.0966 158.279 0 185.536 0C212.794 0 234.891 22.0966 234.891 49.3542C234.891 68.9214 223.504 85.829 206.995 93.812L234.891 184H136.182L164.078 93.812Z" fill="#5E6673"/>
<path d="M0.337891 184L38.1921 184L38.1921 182.083L0.337891 182.083L0.337891 184Z" fill="#CACED3"/>
<g style="mix-blend-mode:soft-light">
<path d="M155.109 0L155.109 48.875L216.443 48.875L216.443 -2.68096e-06L155.109 0Z" fill="url(#paint0_linear_1336_5969)"/>
</g>
<path d="M182.183 184L225.308 184L225.308 175.375L182.183 175.375L182.183 184Z" fill="#F0B90B"/>
<path d="M177.391 166.75L220.516 166.75L220.516 158.125L177.391 158.125L177.391 166.75Z" fill="#F0B90B"/>
<path d="M151.517 183.697L182.011 153.203L175.912 147.105L145.418 177.599L151.517 183.697Z" fill="#F0B90B"/>
<path d="M172.599 175.375L215.724 175.375L215.724 166.75L172.599 166.75L172.599 175.375Z" fill="#F8D33A"/>
<g style="mix-blend-mode:soft-light">
<path d="M172.599 175.375L215.724 175.375L215.724 166.75L172.599 166.75L172.599 175.375Z" fill="url(#paint1_linear_1336_5969)"/>
</g>
<path d="M108.02 57.6844C103.155 52.8191 103.155 44.9309 108.02 40.0656C112.886 35.2003 120.774 35.2003 125.639 40.0656L108.02 57.6844Z" fill="#0B0E11"/>
<path d="M98.6209 42.6455L109.166 42.6458L99.0555 32.4809C97.29 30.7059 94.8955 29.7087 92.3987 29.7086L81.8535 29.7083L91.9641 39.8733C93.7296 41.6483 96.1241 42.6455 98.6209 42.6455Z" fill="#0B0E11"/>
<path d="M77.7236 170.435L91.2892 170.434L104.855 184L77.7236 184L77.7236 170.435Z" fill="#2B2F36"/>
<path d="M9.59224 135.986L19.1846 145.579L19.1846 164.763L7.72079e-05 145.579L9.59224 135.986Z" fill="#2B2F36"/>
<path d="M77.7236 170.434L77.7236 156.868L91.2892 156.868L91.2892 170.434L77.7236 170.434Z" fill="#76808F"/>
<path d="M9.59082 135.987L19.1831 126.395L28.7755 135.987L19.1831 145.579L9.59082 135.987Z" fill="#76808F"/>
<path d="M61.9844 76.2418L60.1509 78.0753C52.9716 85.2545 52.9716 96.8944 60.1509 104.074L74.9835 89.241L61.9844 76.2418Z" fill="#484E58"/>
<path fill-rule="evenodd" clip-rule="evenodd" d="M76.9766 81.2162L86.2417 90.4814C89.4767 93.7164 91.2941 98.104 91.2941 102.679V156.869H72.1275V103.473L63.4237 94.7691L76.9766 81.2162Z" fill="#2B2F36"/>
<g style="mix-blend-mode:soft-light" opacity="0.6">
<path fill-rule="evenodd" clip-rule="evenodd" d="M76.9766 81.2162L86.2417 90.4814C89.4767 93.7164 91.2941 98.104 91.2941 102.679V156.869H72.1275V103.473L63.4237 94.7691L76.9766 81.2162Z" fill="url(#paint2_linear_1336_5969)"/>
</g>
<path fill-rule="evenodd" clip-rule="evenodd" d="M61.4784 76.1802L75.0312 89.7331L28.5089 136.255L14.956 122.703L61.4784 76.1802Z" fill="#2B2F36"/>
<path fill-rule="evenodd" clip-rule="evenodd" d="M121.255 91.2415L131.24 81.2566L142.082 92.0989L128.007 106.174C119.857 114.324 105.921 108.552 105.921 97.0255L105.922 76.3123L121.255 76.3123L121.255 91.2415Z" fill="#28D294"/>
<g style="mix-blend-mode:soft-light" opacity="0.6">
<path fill-rule="evenodd" clip-rule="evenodd" d="M121.255 91.2415L131.24 81.2566L142.082 92.0989L128.007 106.174C119.857 114.324 105.921 108.552 105.921 97.0255L105.922 76.3123L121.255 76.3123L121.255 91.2415Z" fill="url(#paint3_linear_1336_5969)"/>
</g>
<path d="M125.402 39.9758C130.272 44.8456 130.272 52.7412 125.402 57.611C120.532 62.4808 112.637 62.4808 107.767 57.611L125.402 39.9758Z" fill="#935A30"/>
<path d="M155.828 73.8309L142.399 73.8309L142.399 87.2601L155.828 87.2601L155.828 73.8309Z" fill="#935A30"/>
<path fill-rule="evenodd" clip-rule="evenodd" d="M91.7162 46.9534L77.0272 32.1936C67.3784 22.4982 50.8254 29.3315 50.8255 43.0099L50.8257 56.5968L66.159 56.5966L66.1589 43.0098L80.8478 57.7696L91.7162 46.9534Z" fill="#28D294"/>
<g style="mix-blend-mode:soft-light" opacity="0.6">
<path fill-rule="evenodd" clip-rule="evenodd" d="M91.7162 46.9534L77.0272 32.1936C67.3784 22.4982 50.8254 29.3315 50.8255 43.0099L50.8257 56.5968L66.159 56.5966L66.1589 43.0098L80.8478 57.7696L91.7162 46.9534Z" fill="url(#paint4_linear_1336_5969)"/>
</g>
<path d="M51.1455 68.9027L60.0324 77.7896L68.9192 68.9027L60.0324 60.0158L51.1455 68.9027Z" fill="#935A30"/>
<g style="mix-blend-mode:soft-light">
<path fill-rule="evenodd" clip-rule="evenodd" d="M226.025 77.5825L226.025 21.1253C217.922 9.52342 204.959 1.56675 190.088 0.206848L190.088 115.326L219.664 134.775L206.994 93.8117C214.646 90.1115 221.198 84.4937 226.025 77.5825Z" fill="url(#paint5_linear_1336_5969)"/>
</g>
<path d="M113.42 68.5684H103.266V58.4146L91.3581 46.5063L61.514 76.3503L91.3581 106.194L121.202 76.3503L113.42 68.5684Z" fill="#28D294"/>
<path d="M113.42 68.5684H103.266V58.4146L91.3581 46.5063L61.514 76.3503L91.3581 106.194L121.202 76.3503L113.42 68.5684Z" fill="#28D294"/>
<g style="mix-blend-mode:soft-light" opacity="0.6">
<path d="M113.42 68.5684H103.266V58.4146L91.3581 46.5063L61.514 76.3503L91.3581 106.194L121.202 76.3503L113.42 68.5684Z" fill="url(#paint6_linear_1336_5969)"/>
</g>
<path d="M222.284 143.245L218.719 131.719L195.771 108.771L189.672 114.87L220.166 145.364L222.284 143.245Z" fill="#F8D33A"/>
<g style="mix-blend-mode:soft-light">
<path d="M222.284 143.245L218.719 131.719L195.771 108.771L189.672 114.87L220.166 145.364L222.284 143.245Z" fill="url(#paint7_linear_1336_5969)"/>
</g>
<path d="M155.11 48.875C155.11 31.9383 168.84 18.2084 185.777 18.2084C202.713 18.2084 216.443 31.9383 216.443 48.875C216.443 65.8118 202.713 79.5417 185.777 79.5417C168.84 79.5417 155.11 65.8118 155.11 48.875Z" fill="#F8D33A"/>
<path d="M162.618 48.8766C162.618 36.087 172.986 25.7189 185.776 25.7189C198.566 25.7189 208.934 36.087 208.934 48.8766C208.934 61.6662 198.566 72.0342 185.776 72.0342C172.986 72.0342 162.618 61.6662 162.618 48.8766Z" fill="#F8D33A"/>
<g style="mix-blend-mode:soft-light">
<path d="M162.618 48.8766C162.618 36.087 172.986 25.7189 185.776 25.7189C198.566 25.7189 208.934 36.087 208.934 48.8766C208.934 61.6662 198.566 72.0342 185.776 72.0342C172.986 72.0342 162.618 61.6662 162.618 48.8766Z" fill="url(#paint8_linear_1336_5969)"/>
</g>
<path d="M198.293 48.8765L185.775 61.3942L173.258 48.8765L185.775 36.3589L198.293 48.8765Z" fill="#F0B90B"/>
<defs>
<linearGradient id="paint0_linear_1336_5969" x1="170.269" y1="0" x2="170.269" y2="20.4725" gradientUnits="userSpaceOnUse">
<stop stop-opacity="0"/>
<stop offset="1"/>
</linearGradient>
<linearGradient id="paint1_linear_1336_5969" x1="215.724" y1="171.063" x2="172.599" y2="171.062" gradientUnits="userSpaceOnUse">
<stop/>
<stop offset="1" stop-opacity="0"/>
</linearGradient>
<linearGradient id="paint2_linear_1336_5969" x1="72.0686" y1="156.869" x2="72.0686" y2="102.719" gradientUnits="userSpaceOnUse">
<stop/>
<stop offset="1" stop-opacity="0"/>
</linearGradient>
<linearGradient id="paint3_linear_1336_5969" x1="104.596" y1="95.696" x2="118.65" y2="109.75" gradientUnits="userSpaceOnUse">
<stop/>
<stop offset="1" stop-opacity="0"/>
</linearGradient>
<linearGradient id="paint4_linear_1336_5969" x1="71.625" y1="53.6499" x2="50.4522" y2="32.4771" gradientUnits="userSpaceOnUse">
<stop/>
<stop offset="1" stop-opacity="0"/>
</linearGradient>
<linearGradient id="paint5_linear_1336_5969" x1="226.025" y1="33.4681" x2="226.025" y2="103.683" gradientUnits="userSpaceOnUse">
<stop stop-opacity="0"/>
<stop offset="1"/>
</linearGradient>
<linearGradient id="paint6_linear_1336_5969" x1="76.7479" y1="61.7828" x2="106.426" y2="91.461" gradientUnits="userSpaceOnUse">
<stop/>
<stop offset="1" stop-opacity="0"/>
</linearGradient>
<linearGradient id="paint7_linear_1336_5969" x1="205.978" y1="108.771" x2="205.978" y2="145.364" gradientUnits="userSpaceOnUse">
<stop/>
<stop offset="1" stop-opacity="0"/>
</linearGradient>
<linearGradient id="paint8_linear_1336_5969" x1="185.776" y1="72.0342" x2="185.776" y2="25.7189" gradientUnits="userSpaceOnUse">
<stop/>
<stop offset="1" stop-opacity="0"/>
</linearGradient>
</defs>
</svg>
