<svg width="106" height="106" viewBox="0 0 106 106" fill="none" xmlns="http://www.w3.org/2000/svg">
<circle r="19.875" transform="matrix(1 0 0 -1 24.2917 24.2917)" fill="#474D57"/>
<circle r="12.1458" transform="matrix(1 0 0 -1 33.1251 85.0208)" fill="#474D57"/>
<circle r="7.17708" transform="matrix(1 0 0 -1 98.8228 27.0521)" fill="#474D57"/>
<path fill-rule="evenodd" clip-rule="evenodd" d="M52.9999 90.5417C73.7336 90.5417 90.5416 73.7337 90.5416 53C90.5416 32.2663 73.7336 15.4583 52.9999 15.4583C32.2662 15.4583 15.4583 32.2663 15.4583 53C15.4583 73.7337 32.2662 90.5417 52.9999 90.5417ZM52.9999 67.3542L38.6458 53L52.9999 38.6458L67.3541 53L52.9999 67.3542Z" fill="url(#paint0_linear_6794_271709)"/>
<path fill-rule="evenodd" clip-rule="evenodd" d="M53.0004 25.3959C68.2458 25.3959 80.6046 37.7547 80.6046 53.0001C80.6046 68.2454 68.2458 80.6042 53.0004 80.6042C37.755 80.6042 25.3962 68.2454 25.3962 53.0001C25.3962 37.7547 37.755 25.3959 53.0004 25.3959ZM53.0004 67.3542L38.6462 53.0001L53.0004 38.6459L67.3546 53.0001L53.0004 67.3542Z" fill="#76808F"/>
<path d="M80.6038 64.0416C71.4565 64.0416 64.0413 71.4569 64.0413 80.6041C64.0413 89.7513 71.4565 97.1666 80.6038 97.1666C89.751 97.1666 97.1663 89.7513 97.1663 80.6041C97.1663 71.4569 89.751 64.0416 80.6038 64.0416Z" fill="url(#paint1_linear_6794_271709)"/>
<path d="M82.26 90.5416H78.9475V87.2291H82.26V90.5416Z" fill="#14151A"/>
<path d="M78.9475 83.9166V70.6666H82.26V83.9166L78.9475 83.9166Z" fill="#14151A"/>
<defs>
<linearGradient id="paint0_linear_6794_271709" x1="52.9999" y1="15.4583" x2="52.9999" y2="90.5417" gradientUnits="userSpaceOnUse">
<stop stop-color="#929AA5"/>
<stop offset="1" stop-color="#76808F"/>
</linearGradient>
<linearGradient id="paint1_linear_6794_271709" x1="64.0413" y1="80.6041" x2="97.1663" y2="80.6041" gradientUnits="userSpaceOnUse">
<stop stop-color="#F0B90B"/>
<stop offset="1" stop-color="#F8D33A"/>
</linearGradient>
</defs>
</svg>
